<?xml version="1.0" standalone="no"?><!DOCTYPE svg PUBLIC "-//W3C//DTD SVG 1.1//EN" "http://www.w3.org/Graphics/SVG/1.1/DTD/svg11.dtd"><svg t="1525420052215" class="icon" style="" viewBox="0 0 1024 1024" version="1.1" xmlns="http://www.w3.org/2000/svg" p-id="1881" xmlns:xlink="http://www.w3.org/1999/xlink" width="48" height="48"><defs><style type="text/css"></style></defs><path d="M814.773791 67.828828c-9.757225-2.665713-20.264533-3.807722-30.39731-3.807722H239.596913c-42.406832 0-75.05644 18.280342-97.197716 55.219649-21.767769 36.559661-19.426445 88.082104 6.754845 122.627898 4.393054 5.79703 150.138462 179.369204 230.450602 260.864286 2.626827 2.665713 4.233418 5.332449 4.233418 9.140171 0 6.092765-0.048095 16.572444-0.088005 30.068829a32.196283 32.196283 0 0 0-0.052188 1.783623v192.108343 55.357795c0 17.662265 14.3181 31.980365 31.980365 31.980365s32.127721-14.3181 32.127722-31.980365V575.705927 543.726585l-0.00307-0.113587-0.004094-31.738865c0-14.168698-3.926426-35.044144-22.637579-54.035683-76.801177-77.932953-214.959793-242.273882-225.372957-255.061117-9.779737-13.389962-10.937097-36.44812-2.475378-50.743708 10.400884-17.306154 22.265096-24.051789 42.283012-24.051789h544.779567c5.079692 0 9.891278 0.549515 13.544481 1.548263l0.769527 0.204661c19.692504 5.116531 33.339316 23.633257 33.184796 45.028542l-0.001023 0.459465c0 8.604982-1.857301 20.485567-16.340153 36.104289-35.198663 37.959543-66.340941 72.304769-96.456843 105.519242-39.933501 44.042075-77.652568 85.640496-122.542964 133.245724-13.806447 14.640442-20.806885 32.351825-20.806884 52.642964V927.488923c0 17.662265 14.626115 31.980365 32.28838 31.980365s31.980365-14.3181 31.980365-31.980365V575.705927v-31.980365c0-1.49198 0.197498-2.957355 0-4.394077 0-12.19781-0.308015-24.384363-0.308015-36.596499 0-3.807722 0.810459-6.036483 3.377934-8.758478 79.905888-84.738963 138.603755-152.058185 219.370243-239.159962 20.720927-22.346961 33.399691-48.365544 33.399691-79.592756 0.375553-52.175313-34.149774-95.208409-81.061201-107.394962z" p-id="1882" fill="#333333"></path></svg>